<svg xmlns="http://www.w3.org/2000/svg" viewBox="0 0 420 200" width="420" height="200" aria-labelledby="title-daphnid">
  <title id="title-daphnid">Daphnid charger — valve layout from predatorDaphnidMesh</title>
  <rect width="420" height="200" fill="#0c2420"/>
  <g transform="translate(210,100)">
    <!-- +Z down in this top-down sketch: rostrum at +y -->
    <!-- valves: spheres z≈-0.04, x±0.16, scale ~0.48×0.62 -->
    <ellipse cx="-38" cy="6" rx="28" ry="42" fill="#3aab98" opacity="0.82" transform="rotate(-12 -38 6)"/>
    <ellipse cx="38" cy="6" rx="28" ry="42" fill="#3aab98" opacity="0.82" transform="rotate(12 38 6)"/>
    <!-- dorsal stripe -->
    <rect x="-6" y="-48" width="12" height="88" rx="2" fill="#1d6b5c" opacity="0.55" transform="rotate(90)"/>
    <!-- core -->
    <ellipse cx="2" cy="4" rx="22" ry="14" fill="#7ef3d9" opacity="0.45"/>
    <!-- rostrum z=0.72 -->
    <path fill="#4ac4b0" d="M-6,-58 L6,-58 L0,-92 Z"/>
    <!-- eye z=0.74 -->
    <circle cx="0" cy="-78" r="10" fill="#0a0408"/>
    <circle cx="0" cy="-82" r="9" fill="#cfffff" opacity="0.35"/>
    <!-- antennae -->
    <line x1="52" y1="-8" x2="92" y2="-48" stroke="#8ad4ce" stroke-width="3" stroke-linecap="round"/>
    <line x1="-52" y1="-8" x2="-92" y2="-48" stroke="#8ad4ce" stroke-width="3" stroke-linecap="round"/>
    <!-- brood pouch -->
    <ellipse cx="8" cy="34" rx="12" ry="7" fill="#5ec4b8" opacity="0.45"/>
    <!-- tail spine z=-0.74 -->
    <path fill="#3aab98" d="M-4,58 L4,58 L0,82 Z" opacity="0.9"/>
  </g>
  <text x="210" y="188" fill="#5aa090" font-size="10" font-family="system-ui,sans-serif" text-anchor="middle">Top-ish schematic · rostrum toward top of frame</text>
</svg>
