<svg xmlns="http://www.w3.org/2000/svg" viewBox="0 0 420 200" width="420" height="200" aria-labelledby="title-hydra">
  <title id="title-hydra">Hydra pod — stalk, bulb, 5 tentacle tubes from predatorHydraPodMesh</title>
  <rect width="420" height="200" fill="#0c1814"/>
  <g transform="translate(210,28)">
    <defs>
      <radialGradient id="glow" cx="50%" cy="40%" r="60%"><stop offset="0%" stop-color="#c8fff1"/><stop offset="100%" stop-color="transparent"/></radialGradient>
    </defs>
    <!-- bulb y=0.52 scaled -->
    <ellipse cx="0" cy="38" rx="52" ry="30" fill="#558f6f" opacity="0.92" stroke="#c8fff1" stroke-width="1"/>
    <!-- collar -->
    <ellipse cx="0" cy="56" rx="36" ry="10" fill="none" stroke="#7aab8c" stroke-width="3" transform="rotate(-10)"/>
    <!-- stalk -->
    <path fill="#3d5c48" d="M-14,68 Q-8,118 0,138 L0,148 Q16,118 14,68 Z"/>
    <!-- foot -->
    <ellipse cx="0" cy="152" rx="40" ry="12" fill="#3d5c48"/>
    <!-- mouth pit -->
    <ellipse cx="4" cy="24" rx="10" ry="6" fill="#0c1812"/>
    <!-- 5 tentacles: beta = ti*2π*0.2+0.22 -->
    <path fill="none" stroke="#7aab8c" stroke-width="4" stroke-linecap="round" d="M 62,8 Q 95,75 120,115"/>
    <path fill="none" stroke="#7aab8c" stroke-width="4" stroke-linecap="round" d="M 38,-22 Q 55,50 72,108"/>
    <path fill="none" stroke="#7aab8c" stroke-width="4" stroke-linecap="round" d="M -38,-22 Q -55,50 -72,108"/>
    <path fill="none" stroke="#7aab8c" stroke-width="4" stroke-linecap="round" d="M -62,8 Q -95,75 -120,115"/>
    <path fill="none" stroke="#7aab8c" stroke-width="4" stroke-linecap="round" d="M 0,-28 Q 0,45 0,108"/>
    <!-- nematocyst tips -->
    <circle cx="120" cy="115" r="9" fill="#e8ffff" opacity="0.88"/>
    <circle cx="72" cy="108" r="9" fill="#e8ffff" opacity="0.88"/>
    <circle cx="-72" cy="108" r="9" fill="#e8ffff" opacity="0.88"/>
    <circle cx="-120" cy="115" r="9" fill="#e8ffff" opacity="0.88"/>
    <circle cx="0" cy="108" r="9" fill="#e8ffff" opacity="0.88"/>
  </g>
  <text x="210" y="188" fill="#6a9880" font-size="10" font-family="system-ui,sans-serif" text-anchor="middle">Stylized front · 5× TubeGeometry tentacles</text>
</svg>
