<svg xmlns="http://www.w3.org/2000/svg" viewBox="0 0 420 200" width="420" height="200" aria-labelledby="title-mozzie">
  <title id="title-mozzie">Mosquito larva — schematic side silhouette from predatorMozzieMesh (sceneMeshes.js)</title>
  <rect width="420" height="200" fill="#0a1c24"/>
  <!-- +Z to the right; rough z extents from mesh: head ~0.56, thorax ~0.24, abdomen ~0.22..-0.58, siphon back ~-0.74 -->
  <g transform="translate(10,100)">
    <!-- siphon + bell -->
    <path fill="#6f5238" d="M-8,-12 L-42,-6 L-38,8 L-6,10 Z"/>
    <ellipse cx="-58" cy="2" rx="14" ry="7" fill="#6f5238" opacity="0.9"/>
    <!-- abdomen segments (8 spheres along z) -->
    <path fill="#a88863" stroke="#c96f4a" stroke-width="0.5" opacity="0.95"
      d="M-95,6 Q-88,-10 -78,-8 L-52,-6 Q-38,-14 -28,-6 L-12,-5 Q2,-12 12,-3 L28,-4 Q38,-10 48,2 L48,10 Q38,18 28,14 L12,16 Q2,22 -12,14 L-28,15 Q-38,22 -52,14 L-78,18 Q-88,20 -95,6Z"/>
    <ellipse cx="-102" cy="8" rx="10" ry="6" fill="#dcc4a8" opacity="0.55"/>
    <!-- thorax + bulge -->
    <ellipse cx="6" cy="2" rx="34" ry="26" fill="#b89a72"/>
    <ellipse cx="-8" cy="12" rx="22" ry="15" fill="#b89a72" opacity="0.88"/>
    <!-- head -->
    <ellipse cx="58" cy="4" rx="20" ry="16" fill="#3d3024"/>
    <!-- mouth brushes hint -->
    <line x1="62" y1="12" x2="72" y2="22" stroke="#e8d4bc" stroke-width="2" opacity="0.7"/>
    <line x1="58" y1="14" x2="68" y2="26" stroke="#e8d4bc" stroke-width="2" opacity="0.7"/>
    <line x1="54" y1="12" x2="60" y2="24" stroke="#e8d4bc" stroke-width="2" opacity="0.7"/>
  </g>
  <text x="210" y="188" fill="#5a7a88" font-size="10" font-family="system-ui,sans-serif" text-anchor="middle">Side view · +Z → · colors from COLORS.mozzie*</text>
</svg>
